# xmcd
#
# Track frame offsets: 
#        150
#        8530
#        22857
#        35305
#        45860
#        61590
#        72222
#        84545
#        95467
#        105965
#        117230
#        129627
#        139667
#        148867
#        159160
#        173727
#        186252
#        195820
#        207875
#        219140
#        229440
#        240495
#        253320
#        266597
#
# Disc length: 3737 seconds
#
# Revision: 2
# Processed by: cddbd v1.5.2PL0 Copyright (c) Steve Scherf et al.
# Submitted via: ExactAudioCopyFreeDBPlugin 1.0
#
DISCID=320e9718
DTITLE=Jackie Wilson - Jackie Wilson:  Mr. Excitement! [Rhino box set]
DYEAR=1992
DGENRE=Rhythm and Blues
TTITLE0=St. Louis Blues (as lead vocalist for "Billy Ward and The Domino
TTITLE0=es")
TTITLE1=St. Therese of the Roses (as lead vocalist for "Billy Ward and T
TTITLE1=he Dominoes")
TTITLE2=Reet Petite (The Finest Girl You Ever Want to Meet)
TTITLE3=By the Light of the Silvery Moon
TTITLE4=Danny Boy (version 1)
TTITLE5=Right Now!
TTITLE6=I'm Wanderin'
TTITLE7=We Have Love
TTITLE8=Singing a Song
TTITLE9=To Be Loved
TTITLE10=Lonely Teardrops
TTITLE11=I'll Be Satisfied
TTITLE12=You Better Know It
TTITLE13=Talk That Talk
TTITLE14=Only You, Only Me
TTITLE15=Hush-A-Bye
TTITLE16=That's Why (I Love You So)
TTITLE17=I Know I'll Always Be in Love with You
TTITLE18=Wishing Well
TTITLE19=So Much
TTITLE20=It's All a Part of Love
TTITLE21=Night
TTITLE22=Doggin' Around
TTITLE23=She Done Me Wrong
EXTD=
EXTT0=
EXTT1=
EXTT2=
EXTT3=
EXTT4=
EXTT5=
EXTT6=
EXTT7=
EXTT8=
EXTT9=
EXTT10=
EXTT11=
EXTT12=
EXTT13=
EXTT14=
EXTT15=
EXTT16=
EXTT17=
EXTT18=
EXTT19=
EXTT20=
EXTT21=
EXTT22=
EXTT23=
PLAYORDER=
